<?xml version="1.0" encoding="utf-8"?>
<!-- Generator: Adobe Illustrator 19.1.1, SVG Export Plug-In . SVG Version: 6.00 Build 0)  -->
<!DOCTYPE svg PUBLIC "-//W3C//DTD SVG 1.1//EN" "http://www.w3.org/Graphics/SVG/1.1/DTD/svg11.dtd">
<svg version="1.1" id="Calque_1" xmlns="http://www.w3.org/2000/svg" xmlns:xlink="http://www.w3.org/1999/xlink" x="0px" y="0px"
	 viewBox="0 0 516 99" style="enable-background:new 0 0 516 99;" xml:space="preserve">
<style type="text/css">
	.st0{opacity:0.5;fill:#28B5CB;}
	.st1{fill:#9D9D9C;}
	.st2{fill:#FFFFFF;}
	.st3{fill:none;stroke:#28B5CB;stroke-width:3;stroke-miterlimit:10;}
</style>
<circle class="st0" cx="34.1" cy="45.2" r="34"/>
<circle class="st0" cx="52.3" cy="34.3" r="34"/>
<circle class="st0" cx="41.3" cy="57.7" r="34"/>
<g>
	<path class="st1" d="M92.7,71.8c0-11.7,8.2-13,16.2-13h9.1c10.1,0,14.1,4.1,14.1,10.9v0.9h-5v-0.8c0-5.4-3.5-6.6-9-6.6h-10
		c-5.1,0-9.9,0.8-9.9,8.8v6.8c0,7.2,4.4,8.8,11,8.8h9.1c5,0,9.3-1.5,9.3-6.8v-1.1h5v0.9c0,8.1-4,11.3-14.1,11.3h-12.2
		c-4.9,0-13.5-1.3-13.5-13V71.8z"/>
	<path class="st1" d="M139.8,71.8c0-10.6,7.5-13.1,17.8-13.1h7.8c10.3,0,17.8,2.5,17.8,13.1v7.1c0,10.6-7.5,13.1-17.8,13.1h-7.8
		c-10.3,0-17.8-2.5-17.8-13.1V71.8z M177.7,72.1c0-7.5-4.4-9-10.7-9h-11c-6.3,0-10.7,1.5-10.7,9v6.4c0,7.5,4.4,9,10.7,9h11
		c6.3,0,10.7-1.5,10.7-9V72.1z"/>
	<path class="st1" d="M192.3,59.3h5v5.6h0.1c2-5,6.2-6.1,13-6.1h8.1c10.2,0,13.4,5.1,13.4,10.9v21.8h-5.4V71c0-4.7-1.3-7.8-11.9-7.8
		h-1.4c-12.7,0-15.6,2.4-15.6,10v18.3h-5.4V59.3z"/>
	<path class="st1" d="M242.2,59.3h5v5.6h0.1c2-5,6.2-6.1,13-6.1h8.1c10.2,0,13.4,5.1,13.4,10.9v21.8h-5.4V71c0-4.7-1.3-7.8-11.9-7.8
		h-1.4c-12.7,0-15.6,2.4-15.6,10v18.3h-5.4V59.3z"/>
	<path class="st1" d="M290.7,71.8c0-11.7,8.1-13,15.8-13h8.7c9.7,0,16.7,2.5,16.7,13.9v3.6h-35.8v2c0,7.3,3.5,9.2,13,9.2h7.4
		c6.8,0,9.6-0.9,9.9-5.8h5.4v0.6c0,7.4-6.1,9.6-16.2,9.6h-9.8c-7.1,0-15.1-1.3-15.1-13.2V71.8z M326.5,69.7c0-3.3-2.5-6.6-11.3-6.6
		h-7.9c-8.6,0-10.6,1.4-11.1,8.7h30.4V69.7z"/>
	<path class="st1" d="M339,71.8c0-11.7,8.2-13,16.2-13h9.1c10.1,0,14.1,4.1,14.1,10.9v0.9h-5v-0.8c0-5.4-3.5-6.6-9-6.6h-10
		c-5.1,0-9.9,0.8-9.9,8.8v6.8c0,7.2,4.4,8.8,11,8.8h9.2c5,0,9.3-1.5,9.3-6.8v-1.1h5v0.9c0,8.1-4,11.3-14.1,11.3h-12.2
		c-4.9,0-13.5-1.3-13.5-13V71.8z"/>
	<path class="st1" d="M390.1,63.7H383v-4.4h7.1v-7.6h5.4v7.6H417v4.4h-21.5v16c0,6,2.1,7.8,8,7.8h1.7c7.2,0,8.3-1.5,8.3-8.3v-2.4
		h4.4v3.5c0,6.4-0.6,11.5-12.4,11.5h-3c-10.2,0-12.6-4.9-12.6-10.2V63.7z"/>
</g>
<polygon class="st0" points="85.8,66.9 66.7,67.2 47.6,67.6 59.8,67.4 62.3,64.1 64.5,60.4 66.3,56.3 67.8,49.6 68,44.5 67.5,38.9 
	66.1,34.7 76,50.8 "/>
<g>
	<path class="st2" d="M15.1,30.6H19l4.5,18.9l4.6-17.4c0.4-1.3,1.3-2,2.9-2c0.7,0,1.3,0.2,1.9,0.5c0.6,0.4,1,0.8,1.1,1.5l4.5,17.4
		l4.5-18.9h4l-5.3,22.1c-0.4,1.5-1.4,2.2-3,2.2c-1.8,0-2.9-0.9-3.3-2.6l-4.3-16.7l-4.4,16.7c-0.3,1.3-1,2.1-2,2.4
		c-0.5,0.2-0.9,0.2-1.3,0.2c-1.7,0-2.8-0.7-3.1-2.2L15.1,30.6z"/>
	<path class="st2" d="M50.3,48.2V37.5c0-4.6,2.5-6.9,7.4-6.9h5.9c1.9,0,3.5,0.5,4.6,1.6c1.1,1.1,1.7,2.6,1.7,4.5v2.8l-15.6,7.3l0,1
		c0.2,1,0.4,1.7,0.7,2c0.4,0.4,1,0.6,2,0.6h13.2v3.9H56.8c-1.9,0-3.4-0.6-4.7-1.7C50.9,51.6,50.3,50,50.3,48.2z M54.3,42.4L65.9,37
		v-0.4c0-1.4-0.8-2.1-2.4-2.1H57c-1.8,0-2.7,1-2.7,3V42.4z"/>
</g>
<g>
	<path d="M460.3,62.8H452v-4.3h21.4v4.3H465v22.1h-4.7V62.8z"/>
	<path d="M476,58.5h5.1l7.9,20.3l7.9-20.3h5l-11,26.5H487L476,58.5z"/>
</g>
<path class="st3" d="M508.5,97.4h-63c-3.3,0-6-2.7-6-6V52.2c0-3.3,2.7-6,6-6h63c3.3,0,6,2.7,6,6v39.3
	C514.5,94.7,511.8,97.4,508.5,97.4z"/>
</svg>
