<?xml version="1.0" encoding="utf-8"?>
<!-- Generator: Adobe Illustrator 21.1.0, SVG Export Plug-In . SVG Version: 6.00 Build 0)  -->
<!DOCTYPE svg PUBLIC "-//W3C//DTD SVG 1.1//EN" "http://www.w3.org/Graphics/SVG/1.1/DTD/svg11.dtd">
<svg version="1.1" id="Calque_2" xmlns="http://www.w3.org/2000/svg" xmlns:xlink="http://www.w3.org/1999/xlink" x="0px" y="0px"
	 viewBox="0 0 675.1 217.4" style="enable-background:new 0 0 675.1 217.4;" xml:space="preserve">
<style type="text/css">
	.st0{fill:#706F6F;}
</style>
<g>
	<path class="st0" d="M576.9,4.8h36c11.3,0,17.6-0.1,23.1,1c8.1,1.6,13.8,4.7,17.8,9.4c3.5,4.2,5,8.8,5.7,14.4
		c0.6,4.7,0,13.9-3.2,19.5C652.9,55,643.9,60,630,61l37.4,34h-15.9l-36.8-33.4h-22.9V95h-14.9L576.9,4.8L576.9,4.8z M591.9,15.6V51
		l28.5,0.1c6.8,0,11.9-0.6,15.1-1.7c3.3-1.1,7.8-2.8,9.5-7.2c1.1-2.8,0.9-8.6,0.9-12c-0.1-2.9-0.9-5.6-2.8-8
		c-1.9-2.4-4.3-4.1-7.3-5.1c-3-1.1-8-1.6-15-1.6h-28.9V15.6z"/>
	<path class="st0" d="M539.9,14.7c-9.5-9.6-21.3-14.3-35.5-14.3c-8.7,0-16.8,2.2-24.3,6.6c-7.5,4.4-13.4,10.5-17.7,18.2
		c-4.3,7.8-6.5,16.2-6.5,25.3c0,13.6,4.7,25.3,14.3,34.8c9.5,9.6,21.2,14.4,35,14.4c13.7,0,25.3-4.8,34.8-14.5s14.2-21.4,14.2-35.2
		C554.1,36,549.4,24.2,539.9,14.7z M535.8,68.5c-3.1,5.6-7.4,9.9-13,13.1c-5.5,3.2-11.6,4.8-18.1,4.8c-9.8,0-18.1-3.5-25-10.4
		c-6.9-7-10.4-15.5-10.4-25.6c0-6.8,1.6-13,4.7-18.6c3.1-5.6,7.5-10,13-13.2c5.6-3.3,11.4-4.9,17.7-4.9s12.3,1.6,17.9,4.9
		c5.6,3.3,10,7.6,13.1,13.1s4.7,11.6,4.7,18.3C540.5,56.7,539,62.9,535.8,68.5z"/>
	<path class="st0" d="M0.9,5h86.7l-8.8,12.1H16.6v26.7h53.8v11.4H16.6v27.5h61.2L87.1,95H0.9V5z"/>
	<path class="st0" d="M373.5,5.4h15.4v78.4l49.4,0.1l7.9,10.7h-72.6V5.4L373.5,5.4L373.5,5.4z"/>
	<path class="st0" d="M323.3,5.4h14.9v89.7h-14.9V5.4z"/>
	<g>
		<path class="st0" d="M258.5,43.7c-16.9-5.1-24.4-8.8-24.4-17.4c0-7,6.8-14.1,21.9-14.1c11.4,0,20.3,3.2,25,5.3l4.5-10.4
			c-7.3-3.3-18-5.3-28.9-5.3c-24.3,0-42,11.2-42,26.6c0,11.1,10.9,19.8,32.5,25.7c17.6,5,23.9,9.8,23.9,18.4
			c0,9.6-9.4,15.3-25.3,15.3c-10.9,0-22.3-3.2-29.6-6.3l-4.5,10.7c9.2,3.9,21.5,6.1,33.6,6.1c27.5,0,45.3-10.8,45.3-27.4
			C290.5,58.1,280.9,50,258.5,43.7z"/>
	</g>
	<g>
		<path class="st0" d="M158.7,43.7c-16.9-5.1-24.4-8.8-24.4-17.4c0-7,6.8-14.1,21.9-14.1c11.4,0,20.3,3.2,25,5.3l4.5-10.4
			c-7.3-3.3-18-5.3-28.9-5.3c-24.3,0-42,11.2-42,26.6c0,11.1,10.9,19.8,32.5,25.7c17.6,5,23.9,9.8,23.9,18.4
			c0,9.6-9.5,15.3-25.3,15.3c-10.9,0-22.3-3.2-29.6-6.3l-4.5,10.7c9.2,3.9,21.4,6.1,33.6,6.1c27.5,0,45.3-10.8,45.3-27.4
			C190.7,58.1,181.1,50,158.7,43.7z"/>
	</g>
	<path class="st0" d="M674.5,133.8c0.2,0,0.4,0,0.6,0h-1.3C283.4,123.4,18,133.2,1,133.8H0.1c0,0,0.1,0,0.4,0c-0.3,0-0.4,0-0.4,0
		h0.8c16.1,0.7,281.9,11.8,673.1,0h1.2C674.9,133.8,674.7,133.8,674.5,133.8z"/>
</g>
<g>
	<g>
		<path class="st0" d="M45.3,183.5h7l6.2,19.3c0.8,2.5,1.9,7.1,1.9,7.1s1.1-4.3,1.8-6.9l6.1-19.5h7.3l3.2,33.3h-5l-2-21.4
			c-0.3-3-0.3-7-0.3-7s-0.8,3.9-1.9,6.8l-7.2,21.6h-4.5l-7-21.6c-1-2.8-1.8-6.8-1.8-6.8s-0.2,4-0.4,6.8l-1.9,21.6H42L45.3,183.5z"/>
		<path class="st0" d="M88.4,183.4h5.1v33.4h-5.1V183.4z"/>
		<path class="st0" d="M105.7,183.6h20.7l-0.7,4.3h-14.9v9.4h12.5v4.3h-12.4v10.7H127v4.5h-21.3V183.6z"/>
		<path class="st0" d="M135.6,183.5h5.1v20c0,2.6,0.2,4.7,0.4,5.5c0.8,2.5,3.6,4,7.2,4c3,0,5.1-0.8,6.2-2.3c1.1-1.5,1.3-2.7,1.3-5.9
			v-21.3h5.1v21.2c0,5.5-0.6,7.4-3,9.6s-5.4,3.1-9.8,3.1c-6.8,0-10-2.7-11.5-5.7c-0.9-1.9-1.1-3.1-1.1-7v-21.2L135.6,183.5
			L135.6,183.5z"/>
		<path class="st0" d="M168.8,183.4h6.1l7.1,10.9l6.8-10.9h6l-9.5,15.2l11.8,18.2H191l-9-13.8l-8.4,13.8h-6.1l11.2-17.9L168.8,183.4
			z"/>
		<path class="st0" d="M222.1,183.5h5.5l7.3,18.8c1.4,3.6,2.4,7.6,2.4,7.6s1-3.9,2.3-7.3l7.7-19.1h5.3l-13,33.4h-4.9L222.1,183.5z"
			/>
		<path class="st0" d="M273.3,182.9c5.4,0,9.2,2,12,5.4c2.4,2.9,3.5,6.7,3.5,12.1c0,5.6-0.9,9-3.4,12c-2.9,3.5-6.3,5-11.7,5
			c-5,0-8.2-1.3-11-4.4c-3.1-3.4-4.5-7.5-4.5-12.9C258.2,189.4,263.9,182.9,273.3,182.9z M273.1,187.1c-3.1,0-6,1.3-7.3,3.4
			c-1.3,2-1.9,4.8-1.9,8.9c0,4.7,0.8,8.3,2.3,10.7c1.3,2.2,4,3.4,7.7,3.4c4,0,6.8-1.6,8-4.7c0.9-2.2,1.2-4.1,1.2-7.7
			c0-4.5-0.5-7.3-1.7-9.6C279.7,188.3,276.9,187.1,273.1,187.1z"/>
		<path class="st0" d="M298.8,183.4h5.1v33.4h-5.1V183.4z"/>
		<path class="st0" d="M315.9,183.5h8.9c5.5,0,7.7,0.5,9.6,1.7c2.4,1.5,4.1,4.3,4.1,7.5c0,5.9-3.7,9.3-10.1,9.4
			c0.9,0.5,1.3,0.8,1.8,1.5c1,1.3,3.1,3.8,5,6.2c2,2.6,5.3,7,5.3,7h-6.3c-1-1.9-1.4-2.7-3-5c-2.5-3.8-4.5-6.3-6.4-7.9
			c-1.3-1.1-2.2-1.5-3.8-1.7v14.5h-5.1V183.5z M321,187.7v11h3.4c3.6,0,5.5-0.4,6.9-1.5c1.1-0.9,1.9-2.4,1.9-4.3
			c0-2.2-1.3-3.9-3.5-4.7c-1.1-0.3-2.7-0.6-4.7-0.6h-4L321,187.7L321,187.7z"/>
		<path class="st0" d="M371.7,183.5h5.1v29h14.5l-0.7,4.3h-18.9V183.5z"/>
		<path class="st0" d="M399.8,183.6h20.7l-0.7,4.3h-14.9v9.4h12.5v4.3H405v10.7h16.1v4.5h-21.3L399.8,183.6L399.8,183.6z"/>
		<path class="st0" d="M454.4,183.5h7l6.2,19.3c0.8,2.5,1.9,7.1,1.9,7.1s1.1-4.3,1.8-6.9l6.1-19.5h7.3l3.2,33.3h-5l-2-21.4
			c-0.3-3-0.3-7-0.3-7s-0.8,3.9-1.9,6.8l-7.2,21.6H467l-7-21.6c-1-2.8-1.8-6.8-1.8-6.8s-0.2,4-0.4,6.8l-1.9,21.6H451L454.4,183.5z"
			/>
		<path class="st0" d="M510.7,182.9c5.4,0,9.2,2,12,5.4c2.4,2.9,3.5,6.7,3.5,12.1c0,5.6-0.9,9-3.4,12c-2.9,3.5-6.3,5-11.7,5
			c-5,0-8.2-1.3-11-4.4c-3.1-3.4-4.5-7.5-4.5-12.9C495.6,189.4,501.3,182.9,510.7,182.9z M510.5,187.1c-3.1,0-6,1.3-7.3,3.4
			c-1.3,2-1.9,4.8-1.9,8.9c0,4.7,0.8,8.3,2.3,10.7c1.3,2.2,4,3.4,7.7,3.4c4,0,6.8-1.6,8-4.7c0.9-2.2,1.2-4.1,1.2-7.7
			c0-4.5-0.5-7.3-1.7-9.6C517.1,188.3,514.3,187.1,510.5,187.1z"/>
		<path class="st0" d="M535.7,183.5h5.9l10.8,18.1c2.2,3.6,4.1,7.5,4.3,7.8c0,0-0.5-4.7-0.6-9.1l-0.2-16.8h5v33.3h-5.3l-10.7-17.7
			c-2-3.4-4.7-8.7-4.7-8.7c0.1,1.3,0.3,4.4,0.4,9.2l0.3,17.1h-5.2V183.5z"/>
		<path class="st0" d="M572.6,183.7h7.5c2.3,0,4.5,0.1,6,0.3c2.7,0.3,5.4,1.4,7.7,3.3c3.5,3,5,6.8,5,12.9c0,11.1-7.3,15.9-11.9,16.4
			c-1.1,0.1-2.7,0.2-4.6,0.2h-9.7V183.7z M577.7,187.9v24.7h4.1c2,0,2.9-0.1,4.3-0.4c4.1-0.9,7.2-4,7.2-11.7c0-4.7-0.9-7.6-3-9.8
			c-2.3-2.4-4.7-2.9-8.4-2.9L577.7,187.9L577.7,187.9z"/>
		<path class="st0" d="M609.2,183.6h20.7l-0.7,4.3h-14.9v9.4h12.5v4.3h-12.4v10.7h16.1v4.5h-21.3L609.2,183.6L609.2,183.6z"/>
	</g>
</g>
</svg>
