<?xml version="1.0" encoding="utf-8"?>
<!-- Generator: Adobe Illustrator 21.1.0, SVG Export Plug-In . SVG Version: 6.00 Build 0)  -->
<!DOCTYPE svg PUBLIC "-//W3C//DTD SVG 1.1//EN" "http://www.w3.org/Graphics/SVG/1.1/DTD/svg11.dtd">
<svg version="1.1" id="Calque_2" xmlns="http://www.w3.org/2000/svg" xmlns:xlink="http://www.w3.org/1999/xlink" x="0px" y="0px"
	 viewBox="0 0 516 96.2" style="enable-background:new 0 0 516 96.2;" xml:space="preserve">
<style type="text/css">
	.st0{fill:url(#SVGID_1_);}
	.st1{fill:#FFFFFF;}
	.st2{opacity:0.5;fill:#00AAD7;enable-background:new    ;}
	.st3{fill:#9C9B9B;}
</style>
<linearGradient id="SVGID_1_" gradientUnits="userSpaceOnUse" x1="437.3714" y1="26.8905" x2="516" y2="26.8905" gradientTransform="matrix(1 0 0 -1 0 99.89)">
	<stop  offset="0" style="stop-color:#2498C1"/>
	<stop  offset="1" style="stop-color:#2EB7E6"/>
</linearGradient>
<path class="st0" d="M506.9,96.2h-60.5c-5,0-9.1-4.1-9.1-9.1V58.8c0-5,4.1-9.1,9.1-9.1h60.5c5,0,9.1,4.1,9.1,9.1v28.3
	C516,92.2,511.9,96.2,506.9,96.2z"/>
<g>
	<path class="st1" d="M464.7,63.8h-8.4v-4.3h21.6v4.3h-8.4V86h-4.7V63.8z"/>
	<path class="st1" d="M473.4,59.4h5.2l8,20.5l8-20.5h5l-11,26.8h-4.1L473.4,59.4z"/>
</g>
<circle class="st2" cx="34.3" cy="45.3" r="34.3"/>
<circle class="st2" cx="52.8" cy="34.3" r="34.3"/>
<circle class="st2" cx="41.6" cy="58" r="34.3"/>
<g>
	<path class="st3" d="M93.5,72c0-11.8,8.3-13.1,16.3-13.1h9.2c10.2,0,14.2,4.2,14.2,11v0.9h-5.1v-0.8c0-5.4-3.6-6.7-9-6.7H109
		c-5.2,0-10,0.8-10,8.8V79c0,7.3,4.5,8.9,11.1,8.9h9.2c5.1,0,9.4-1.5,9.4-6.8v-1.1h5.1V81c0,8.2-4.1,11.4-14.3,11.4h-12.4
		c-4.9,0-13.6-1.3-13.6-13.1V72z"/>
	<path class="st3" d="M141.1,72.1c0-10.7,7.6-13.2,18-13.2h7.8c10.4,0,18,2.5,18,13.2v7.1c0,10.7-7.6,13.2-18,13.2H159
		c-10.4,0-18-2.5-18-13.2V72.1z M179.4,72.4c0-7.6-4.5-9-10.8-9h-11.2c-6.4,0-10.8,1.5-10.8,9v6.5c0,7.6,4.5,9,10.8,9h11.2
		c6.4,0,10.8-1.5,10.8-9V72.4z"/>
	<path class="st3" d="M194.1,59.4h5.1V65h0.1c2.1-5,6.3-6.1,13.1-6.1h8.2c10.3,0,13.5,5.2,13.5,11v22h-5.5V71.2
		c0-4.8-1.3-7.9-12-7.9h-1.4c-12.8,0-15.7,2.4-15.7,10.1v18.5h-5.5L194.1,59.4L194.1,59.4z"/>
	<path class="st3" d="M244.5,59.4h5.1V65h0.1c2.1-5,6.3-6.1,13.1-6.1h8.2c10.3,0,13.5,5.2,13.5,11v22H279V71.2c0-4.8-1.3-7.9-12-7.9
		h-1.4c-12.8,0-15.7,2.4-15.7,10.1v18.5h-5.5L244.5,59.4L244.5,59.4z"/>
	<path class="st3" d="M293.4,72c0-11.8,8.1-13.1,15.9-13.1h8.8c9.8,0,16.9,2.5,16.9,14.1v3.6h-36.1v2.1c0,7.4,3.6,9.3,13.1,9.3h7.5
		c6.9,0,9.7-0.9,10-5.9h5.5v0.6c0,7.5-6.2,9.7-16.4,9.7h-9.9c-7.1,0-15.3-1.3-15.3-13.3L293.4,72L293.4,72z M329.5,70
		c0-3.3-2.5-6.6-11.4-6.6h-8c-8.7,0-10.7,1.4-11.2,8.8h30.6V70z"/>
	<path class="st3" d="M342.1,72c0-11.8,8.3-13.1,16.3-13.1h9.2c10.2,0,14.2,4.2,14.2,11v0.9h-5.1v-0.8c0-5.4-3.6-6.7-9-6.7h-10.1
		c-5.1,0-10,0.8-10,8.8V79c0,7.3,4.5,8.9,11.1,8.9h9.2c5.1,0,9.4-1.5,9.4-6.8v-1.1h5.1V81c0,8.2-4.1,11.4-14.3,11.4h-12.4
		c-4.9,0-13.6-1.3-13.6-13.1L342.1,72L342.1,72z"/>
	<path class="st3" d="M393.7,63.8h-7.1v-4.5h7.1v-7.7h5.5v7.7h21.7v4.5h-21.7V80c0,6,2.1,7.9,8.1,7.9h1.7c7.3,0,8.4-1.5,8.4-8.4
		v-2.4h4.5v3.6c0,6.5-0.6,11.7-12.5,11.7h-3c-10.3,0-12.7-5-12.7-10.3L393.7,63.8L393.7,63.8z"/>
</g>
<polygon class="st2" points="86.6,67.2 67.3,67.6 48,67.9 60.3,67.7 62.9,64.4 65,60.7 66.8,56.5 68.4,49.8 68.6,44.6 68.1,39 
	66.7,34.8 76.7,51 "/>
<g>
	<path class="st1" d="M15.2,30.6h4l4.6,19.1l4.7-17.6c0.4-1.3,1.3-2,3-2c0.7,0,1.3,0.2,1.9,0.5c0.6,0.4,1,0.8,1.2,1.5l4.6,17.6
		l4.6-19.1h4l-5.4,22.2c-0.4,1.5-1.4,2.2-3,2.2c-1.8,0-2.9-0.9-3.4-2.7l-4.3-16.9l-4.5,16.9c-0.4,1.3-1,2.1-2.1,2.4
		c-0.4,0.1-0.9,0.2-1.3,0.2c-1.7,0-2.8-0.7-3.1-2.2L15.2,30.6z"/>
	<path class="st1" d="M50.8,48.3V37.6c0-4.6,2.5-7,7.5-7h5.9c2,0,3.5,0.5,4.6,1.6c1.1,1.1,1.7,2.6,1.7,4.5v2.9l-15.8,7.3V48
		c0.2,1,0.4,1.7,0.7,2.1c0.4,0.4,1,0.6,2,0.6h13.3v4H57.3c-1.9,0-3.4-0.6-4.7-1.7C51.4,51.8,50.8,50.3,50.8,48.3z M54.7,42.5
		l11.7-5.5v-0.4c0-1.4-0.8-2.1-2.5-2.1h-6.6c-1.8,0-2.7,1-2.7,3L54.7,42.5L54.7,42.5z"/>
</g>
</svg>
