<?xml version="1.0" encoding="utf-8"?>
<!-- Generator: Adobe Illustrator 21.1.0, SVG Export Plug-In . SVG Version: 6.00 Build 0)  -->
<!DOCTYPE svg PUBLIC "-//W3C//DTD SVG 1.1//EN" "http://www.w3.org/Graphics/SVG/1.1/DTD/svg11.dtd">
<svg version="1.1" id="Calque_1" xmlns="http://www.w3.org/2000/svg" xmlns:xlink="http://www.w3.org/1999/xlink" x="0px" y="0px"
	 viewBox="0 0 675.1 217.4" style="enable-background:new 0 0 675.1 217.4;" xml:space="preserve">
<style type="text/css">
	.st0{fill:#706F6F;}
</style>
<g>
	<path class="st0" d="M576.8,4.4h36c11.3,0,17.6-0.1,23.1,1c8.1,1.6,13.8,4.7,17.8,9.4c3.5,4.2,5,8.8,5.7,14.4
		c0.6,4.7,0,13.9-3.2,19.5c-3.4,5.9-12.4,10.9-26.3,11.9l37.4,34h-15.9l-36.8-33.4h-22.9v33.4h-14.9L576.8,4.4L576.8,4.4z
		 M591.8,15.2v35.4l28.5,0.1c6.8,0,11.9-0.6,15.1-1.7c3.3-1.1,7.8-2.8,9.5-7.2c1.1-2.8,0.9-8.6,0.9-12c-0.1-2.9-0.9-5.6-2.8-8
		c-1.9-2.4-4.3-4.1-7.3-5.1c-3-1.1-8-1.6-15-1.6h-28.9V15.2z"/>
	<path class="st0" d="M539.8,14.3C530.3,4.7,518.5,0,504.3,0c-8.7,0-16.8,2.2-24.3,6.6c-7.5,4.4-13.4,10.5-17.7,18.2
		c-4.3,7.8-6.5,16.2-6.5,25.3c0,13.6,4.7,25.3,14.3,34.8c9.5,9.6,21.2,14.4,35,14.4c13.7,0,25.3-4.8,34.8-14.5s14.2-21.4,14.2-35.2
		C554,35.6,549.3,23.8,539.8,14.3z M535.7,68.1c-3.1,5.6-7.4,9.9-13,13.1c-5.5,3.2-11.6,4.8-18.1,4.8c-9.8,0-18.1-3.5-25-10.4
		c-6.9-7-10.4-15.5-10.4-25.6c0-6.8,1.6-13,4.7-18.6c3.1-5.6,7.5-10,13-13.2c5.6-3.3,11.4-4.9,17.7-4.9s12.3,1.6,17.9,4.9
		c5.6,3.3,10,7.6,13.1,13.1s4.7,11.6,4.7,18.3C540.4,56.3,538.9,62.5,535.7,68.1z"/>
	<path class="st0" d="M0.8,4.6h86.7l-8.8,12.1H16.5v26.7h53.8v11.4H16.5v27.5h61.2L87,94.6H0.8V4.6z"/>
	<path class="st0" d="M373.4,5h15.4v78.4l49.4,0.1l7.9,10.7h-72.6V5L373.4,5L373.4,5z"/>
	<path class="st0" d="M323.2,5h14.9v89.7h-14.9V5z"/>
	<g>
		<path class="st0" d="M258.4,43.3c-16.9-5.1-24.4-8.8-24.4-17.4c0-7,6.8-14.1,21.9-14.1c11.4,0,20.3,3.2,25,5.3l4.5-10.4
			c-7.3-3.3-18-5.3-28.9-5.3c-24.3,0-42,11.2-42,26.6c0,11.1,10.9,19.8,32.5,25.7c17.6,5,23.9,9.8,23.9,18.4
			c0,9.6-9.4,15.3-25.3,15.3c-10.9,0-22.3-3.2-29.6-6.3l-4.5,10.7c9.2,3.9,21.5,6.1,33.6,6.1c27.5,0,45.3-10.8,45.3-27.4
			C290.4,57.7,280.8,49.6,258.4,43.3z"/>
	</g>
	<g>
		<path class="st0" d="M158.6,43.3c-16.9-5.1-24.4-8.8-24.4-17.4c0-7,6.8-14.1,21.9-14.1c11.4,0,20.3,3.2,25,5.3l4.5-10.4
			c-7.3-3.3-18-5.3-28.9-5.3c-24.3,0-42,11.2-42,26.6c0,11.1,10.9,19.8,32.5,25.7c17.6,5,23.9,9.8,23.9,18.4
			c0,9.6-9.5,15.3-25.3,15.3c-10.9,0-22.3-3.2-29.6-6.3l-4.5,10.7c9.2,3.9,21.4,6.1,33.6,6.1c27.5,0,45.3-10.8,45.3-27.4
			C190.6,57.7,181,49.6,158.6,43.3z"/>
	</g>
	<path class="st0" d="M674.4,133.4c0.2,0,0.4,0,0.6,0h-1.3c-390.4-10.4-655.8-0.6-672.8,0H0c0,0,0.1,0,0.4,0c-0.3,0-0.4,0-0.4,0h0.8
		c16.1,0.7,281.9,11.8,673.1,0h1.2C674.8,133.4,674.6,133.4,674.4,133.4z"/>
</g>
<g>
	<g>
		<path class="st0" d="M63.2,185l-1.9,3c-2.4-1.5-4.9-2.3-7.5-2.3c-3.5,0-5.8,1.5-5.8,3.9c0,1.3,0.8,2.4,2.5,3.1
			c0.7,0.3,0.9,0.5,2.3,0.8l3.7,1c2.1,0.5,4.2,1.6,5.5,2.8c1.2,1.2,1.9,3.1,1.9,4.9c0,2.8-1.7,5.6-4.5,7.1c-1.9,1-4.2,1.6-7,1.6
			c-3.6,0-7.1-0.9-10.1-2.5l1.7-3.3c2.9,1.6,5.6,2.3,8.7,2.3c1.9,0,3.3-0.3,4.4-1c1.4-0.8,2.2-2,2.2-3.4c0-2.2-1.5-3.6-5.3-4.5l-4-1
			c-4-1-6.6-3.8-6.6-7.1c0-4.7,4.2-8,10.1-8C57.1,182.3,60.8,183.3,63.2,185z"/>
		<path class="st0" d="M72.2,183.1h17l-0.6,3.5H76.3v7.8h10.3v3.5H76.4v8.8h13.3v3.7H72.2V183.1z"/>
		<path class="st0" d="M97.4,183.1h17l-0.5,3.5h-12.3v7.8h10.3v3.5h-10.2v8.8h13.2v3.7H97.4V183.1z"/>
		<path class="st0" d="M122.7,183h4.2v27.4h-4.2V183z"/>
		<path class="st0" d="M136.7,183h4.8l8.9,14.9c1.8,3,3.4,6.2,3.5,6.4c0,0-0.4-3.9-0.5-7.5l-0.2-13.8h4.1v27.4h-4.4l-8.8-14.5
			c-1.7-2.8-3.8-7.1-3.8-7.1c0.1,1.1,0.3,3.6,0.3,7.6l0.3,14.1h-4.3L136.7,183L136.7,183z"/>
		<path class="st0" d="M187.2,185.6l-2,2.7c-2.1-1.3-3.7-2.1-6.7-2.1c-3.6,0-6.2,1.4-7.3,3.9c-0.8,1.9-1.3,4.2-1.3,6.9
			c0,4.7,1.3,7.8,4,9.2c1.5,0.8,3.5,1.4,5.4,1.4c1.7,0,3.4-0.3,4.5-0.9v-7.4h-6l-0.7-3.5h10.7v13c-2.4,1.5-5.4,2.2-8.8,2.2
			c-4.3,0-7.6-1.4-10-3.8c-2.5-2.5-3.7-5.9-3.7-10.4c0-5.4,1.7-9.2,5.1-11.6c2.3-1.6,4.8-2.3,7.9-2.3
			C181.8,182.7,184.4,183.5,187.2,185.6z"/>
		<path class="st0" d="M211.4,183h20.9l-0.5,3.5h-8.2v23.9h-4.1v-23.9h-8.1L211.4,183L211.4,183z"/>
		<path class="st0" d="M238.8,183h4.1v11.1h12.2V183h4.2v27.4h-4.2v-12.8h-12.2v12.8h-4.1V183z"/>
		<path class="st0" d="M269.2,183.1h17l-0.6,3.5h-12.3v7.8h10.3v3.5h-10.2v8.8h13.3v3.7h-17.5L269.2,183.1L269.2,183.1z"/>
		<path class="st0" d="M309.4,183h4.5l3.5,13.2c1.2,4.3,1.6,7.6,1.8,9.2c0,0,0.9-4.9,2-9l3.5-13.4h4.7l3.7,14c0.9,3.7,1.8,8,1.8,8.2
			c0,0,0.8-4.6,1.8-8.7l3.5-13.5h4.3l-7.1,27.5h-5.2l-3.4-12.7c-1.1-4.1-1.8-8.9-1.8-8.9s-0.9,4.8-1.8,8.5l-3.3,13.1h-5.2L309.4,183
			z"/>
		<path class="st0" d="M362.6,182.5c4.4,0,7.6,1.7,9.9,4.4c2,2.4,2.9,5.5,2.9,9.9c0,4.6-0.7,7.4-2.8,9.9c-2.4,2.9-5.1,4.1-9.7,4.1
			c-4.1,0-6.8-1-9.1-3.6c-2.5-2.8-3.7-6.1-3.7-10.6C350.2,187.9,354.9,182.5,362.6,182.5z M362.5,185.9c-2.5,0-4.9,1.1-6,2.8
			c-1.1,1.6-1.6,3.9-1.6,7.3c0,3.8,0.6,6.8,1.9,8.8c1,1.8,3.3,2.8,6.3,2.8c3.3,0,5.6-1.3,6.6-3.9c0.7-1.8,1-3.4,1-6.3
			c0-3.7-0.4-6-1.4-7.9C367.9,186.9,365.5,185.9,362.5,185.9z"/>
		<path class="st0" d="M383.3,183h7.3c4.5,0,6.3,0.4,7.9,1.4c2,1.3,3.4,3.6,3.4,6.2c0,4.8-3,7.7-8.3,7.7c0.7,0.4,1,0.7,1.5,1.2
			c0.8,1,2.6,3.1,4.1,5.1c1.6,2.2,4.4,5.7,4.4,5.7h-5.2c-0.8-1.6-1.2-2.2-2.5-4.1c-2-3.1-3.7-5.1-5.2-6.5c-1-0.9-1.8-1.3-3.1-1.4v12
			h-4.2L383.3,183L383.3,183z M387.5,186.5v9h2.8c3,0,4.5-0.3,5.7-1.2c0.9-0.7,1.5-1.9,1.5-3.5c0-1.8-1.1-3.2-2.9-3.8
			c-0.9-0.3-2.2-0.5-3.8-0.5H387.5z"/>
		<path class="st0" d="M411.2,183h4.2v23.9h12l-0.6,3.5h-15.6V183z"/>
		<path class="st0" d="M434.2,183.2h6.2c1.9,0,3.7,0.1,4.9,0.2c2.3,0.3,4.4,1.2,6.3,2.7c2.9,2.5,4.1,5.6,4.1,10.6
			c0,9.1-6,13.1-9.8,13.5c-0.9,0.1-2.2,0.2-3.8,0.2h-8L434.2,183.2L434.2,183.2z M438.4,186.6v20.3h3.4c1.7,0,2.4-0.1,3.5-0.3
			c3.4-0.7,5.9-3.3,5.9-9.6c0-3.9-0.7-6.2-2.5-8c-1.9-1.9-3.9-2.4-6.9-2.4H438.4z"/>
		<path class="st0" d="M482.3,183h7c4.8,0,5.6,0.1,7,0.6c3.1,1,5.2,3.5,5.2,6.3c0,1.7-0.8,3.3-2.2,4.5c-0.9,0.8-1.6,1-3.2,1.5
			c2.1,0.4,2.9,0.7,4,1.5c1.7,1.3,2.7,3.3,2.7,5.4c0,3-2.1,5.8-5.1,6.9c-1.8,0.6-2.5,0.7-7.5,0.7h-7.9V183z M486.4,186.6v7.9h5.1
			c3,0,4.1-0.5,5-2c0.3-0.6,0.5-1.2,0.5-1.8c0-1.8-1.2-3.3-3.1-3.7c-1-0.3-1.6-0.3-3.2-0.3h-4.3V186.6z M486.4,197.9v9h5.1
			c1.9,0,3.4-0.2,4.4-0.6c1.4-0.6,2.4-2.2,2.4-3.9c0-2.1-1.4-3.9-3.5-4.2c-0.8-0.2-1.9-0.3-3.3-0.3H486.4z"/>
		<path class="st0" d="M510.9,183.1h17l-0.6,3.5H515v7.8h10.3v3.5h-10.2v8.8h13.3v3.7h-17.5V183.1z"/>
		<path class="st0" d="M533.1,183H554l-0.5,3.5h-8.2v23.9h-4.1v-23.9h-8.1L533.1,183L533.1,183z"/>
		<path class="st0" d="M557.7,183h20.9l-0.5,3.5h-8.2v23.9h-4.1v-23.9h-8.1L557.7,183L557.7,183z"/>
		<path class="st0" d="M585.2,183.1h17l-0.6,3.5h-12.3v7.8h10.3v3.5h-10.2v8.8h13.3v3.7h-17.5V183.1z"/>
		<path class="st0" d="M610.4,183h7.3c4.5,0,6.3,0.4,7.9,1.4c2,1.3,3.4,3.6,3.4,6.2c0,4.8-3,7.7-8.3,7.7c0.7,0.4,1,0.7,1.5,1.2
			c0.8,1,2.6,3.1,4.1,5.1c1.6,2.2,4.4,5.7,4.4,5.7h-5.2c-0.8-1.6-1.2-2.2-2.5-4.1c-2-3.1-3.7-5.1-5.2-6.5c-1-0.9-1.8-1.3-3.1-1.4v12
			h-4.2V183L610.4,183L610.4,183z M614.6,186.5v9h2.8c3,0,4.5-0.3,5.7-1.2c0.9-0.7,1.5-1.9,1.5-3.5c0-1.8-1.1-3.2-2.9-3.8
			c-0.9-0.3-2.2-0.5-3.8-0.5H614.6z"/>
	</g>
</g>
</svg>
